<?xml version="1.0" encoding="UTF-8" standalone="no"?>
<svg
   xmlns:dc="http://purl.org/dc/elements/1.1/"
   xmlns:cc="http://creativecommons.org/ns#"
   xmlns:rdf="http://www.w3.org/1999/02/22-rdf-syntax-ns#"
   xmlns:svg="http://www.w3.org/2000/svg"
   xmlns="http://www.w3.org/2000/svg"
   xmlns:sodipodi="http://sodipodi.sourceforge.net/DTD/sodipodi-0.dtd"
   xmlns:inkscape="http://www.inkscape.org/namespaces/inkscape"
   width="48"
   height="48"
   viewBox="0 0 12.7 12.7"
   version="1.1"
   id="svg8"
   sodipodi:docname="pagetrek-48.svg"
   inkscape:export-filename="/home/jarus/Documents/PageTrek/icons/pagetrek-32.png"
   inkscape:export-xdpi="64"
   inkscape:export-ydpi="64"
   inkscape:version="1.0.1 (3bc2e813f5, 2020-09-07)">
  <defs
     id="defs2" />
  <sodipodi:namedview
     id="base"
     pagecolor="#ffecb5"
     bordercolor="#666666"
     borderopacity="1.0"
     inkscape:pageopacity="1"
     inkscape:pageshadow="2"
     inkscape:zoom="7.9016563"
     inkscape:cx="24"
     inkscape:cy="24"
     inkscape:document-units="mm"
     inkscape:current-layer="layer1"
     inkscape:document-rotation="0"
     showgrid="false"
     units="px"
     inkscape:pagecheckerboard="false"
     inkscape:window-width="1920"
     inkscape:window-height="1030"
     inkscape:window-x="0"
     inkscape:window-y="50"
     inkscape:window-maximized="0" />
  <metadata
     id="metadata5">
    <rdf:RDF>
      <cc:Work
         rdf:about="">
        <dc:format>image/svg+xml</dc:format>
        <dc:type
           rdf:resource="http://purl.org/dc/dcmitype/StillImage" />
        <dc:title></dc:title>
      </cc:Work>
    </rdf:RDF>
  </metadata>
  <g
     inkscape:groupmode="layer"
     id="layer2"
     inkscape:label="bg" />
  <g
     inkscape:label="Layer 1"
     inkscape:groupmode="layer"
     id="layer1"
     style="display:inline">
    <g
       id="g865"
       transform="translate(0.34826294,-1.6261307)">
      <g
         id="g855"
         transform="matrix(0.05792261,-0.01552032,0.01552032,0.05792261,1.2683204,3.4705401)">
        <path
           d="M 51.688,52.128 C 51.657,52.027 51.577,51.956 51.533,51.864 51.432,51.611 51.289,51.38 51.141,51.152 50.993,50.939 50.86,50.74 50.68,50.568 50.508,50.392 50.305,50.255 50.1,50.12 49.869,49.964 49.645,49.824 49.384,49.712 49.292,49.672 49.216,49.596 49.12,49.561 48.976,49.508 48.832,49.54 48.687,49.508 48.423,49.448 48.164,49.42 47.883,49.42 c -0.276,0 -0.532,0.036 -0.796,0.088 -0.148,0.032 -0.292,0 -0.44,0.053 -0.104,0.035 -0.176,0.111 -0.276,0.155 -0.252,0.097 -0.468,0.24 -0.692,0.396 -0.216,0.141 -0.416,0.281 -0.596,0.461 -0.172,0.172 -0.308,0.376 -0.448,0.58 -0.156,0.236 -0.296,0.451 -0.408,0.72 -0.04,0.092 -0.116,0.164 -0.152,0.264 l -9.632,29.632 c -0.68,2.101 0.464,4.356 2.568,5.041 0.408,0.131 0.828,0.195 1.236,0.195 1.688,0 3.252,-1.08 3.804,-2.764 l 5.828,-17.92 5.832,17.92 c 0.552,1.695 2.116,2.764 3.804,2.764 0.408,0 0.828,-0.064 1.236,-0.195 2.1,-0.685 3.252,-2.937 2.572,-5.041 z"
           id="path2" />
        <path
           d="m 62.023,18.996 c 0,4.418 -3.582,8 -8,8 -4.418,0 -8,-3.582 -8,-8 0,-4.418 3.582,-8 8,-8 4.418,0 8,3.582 8,8 z"
           id="path4" />
        <path
           d="m 68,24.996 c -2.212,0 -4,1.792 -4,4 v 8 h -5.477 l -8.688,-8.024 c -1.628,-1.496 -4.156,-1.4 -5.652,0.228 -0.088,0.092 -0.116,0.216 -0.184,0.304 V 18.996 c 0,-5.516 -4.488,-10 -10,-10 -5.512,0 -10,4.484 -10,10 v 30 c 0,2.216 1.792,4 4,4 h 12 c 2.208,0 4,-1.784 4,-4 V 34.284 c 0.144,0.188 0.232,0.408 0.412,0.572 l 9.836,9.084 c 0.74,0.68 1.708,1.064 2.716,1.064 H 64 v 36 c 0,2.212 1.796,4 4,4 2.212,0 4,-1.788 4,-4 v -52 c 0,-2.216 -1.796,-4.008 -4,-4.008 z"
           id="path6" />
      </g>
      <path
         d="M 8.2742027,8.05477 A 2.7212335,2.7212335 0 0 0 4.4257973,11.903175 2.7212335,2.7212335 0 0 0 8.2742027,8.05477 Z M 6.4800369,8.9197733 A 5.0004063,5.0004063 0 0 0 7.3731098,8.8195245 4.6148783,4.6148783 0 0 1 7.513458,9.8506542 H 6.4823283 Z m 0,-0.2600739 V 7.5346223 c 0.3333986,0.08249 0.6301347,0.4760382 0.8180296,1.0351397 A 4.761528,4.761528 0 0 1 6.4800369,8.6614179 Z M 6.2199629,7.5346223 v 1.1267956 a 4.7666836,4.7666836 0 0 1 -0.8180295,-0.09051 c 0.1890405,-0.56082 0.4846309,-0.953795 0.8180295,-1.0362856 z m 0,1.385151 V 9.8489356 H 5.1888333 A 4.5827989,4.5827989 0 0 1 5.3297544,8.8178059 4.9998334,4.9998334 0 0 0 6.2199629,8.9197733 Z M 4.9258952,9.8489356 H 3.8924741 A 2.452943,2.452943 0 0 1 4.3902806,8.4924272 3.2549329,3.2549329 0 0 0 5.0725448,8.7582296 4.8359985,4.8359985 0 0 0 4.9258952,9.8489356 Z m 0,0.2600744 A 4.8400084,4.8400084 0 0 0 5.0725448,11.197424 3.2652441,3.2652441 0 0 0 4.3902806,11.468382 2.452943,2.452943 0 0 1 3.8924741,10.10901 Z m 0.2606467,0 h 1.0311297 v 0.929162 A 5.0004063,5.0004063 0 0 0 5.3245987,11.138421 4.6148783,4.6148783 0 0 1 5.1865419,10.10901 Z m 1.033421,1.187517 v 1.126796 C 5.8865643,12.340833 5.5898282,11.947285 5.4019334,11.388183 a 4.761528,4.761528 0 0 1 0.8180295,-0.09166 z m 0.260074,1.125077 v -1.125077 a 4.7666836,4.7666836 0 0 1 0.8180296,0.09051 c -0.1890405,0.560821 -0.484631,0.953796 -0.8180296,1.036286 z m 0,-1.385151 V 10.10901 H 7.5111667 A 4.5827989,4.5827989 0 0 1 7.3702456,11.140139 4.9998334,4.9998334 0 0 0 6.4800369,11.038172 Z M 7.7741046,10.10901 H 8.8052344 A 2.452943,2.452943 0 0 1 8.3097192,11.468382 3.2549329,3.2549329 0 0 0 7.6274551,11.199716 4.8359985,4.8359985 0 0 0 7.7741046,10.10901 Z m 0,-0.2600744 A 4.8738065,4.8738065 0 0 0 7.628028,8.7605209 3.2744097,3.2744097 0 0 0 8.3097192,8.4947186 2.452943,2.452943 0 0 1 8.8075259,9.8489356 Z M 8.1367187,8.2890655 A 3.0212101,3.0212101 0 0 1 7.5529847,8.5090399 3.1753067,3.1753067 0 0 0 7.3811298,8.0885681 2.0937662,2.0937662 0 0 0 7.0775193,7.6302882 2.4632543,2.4632543 0 0 1 8.1367187,8.2890655 Z M 5.6224806,7.6302882 A 2.0937662,2.0937662 0 0 0 5.3188702,8.0885681 3.0985447,3.0985447 0 0 0 5.1470153,8.5090399 3.0710479,3.0710479 0 0 1 4.5627084,8.2890655 2.4707014,2.4707014 0 0 1 5.6224806,7.6302882 Z M 4.5632813,11.66888 a 3.0212101,3.0212101 0 0 1 0.583734,-0.219975 3.1753067,3.1753067 0 0 0 0.1718549,0.420472 2.0937662,2.0937662 0 0 0 0.3047562,0.45828 2.4632543,2.4632543 0 0 1 -1.0603451,-0.658777 z m 2.514238,0.658777 a 2.0937662,2.0937662 0 0 0 0.3036105,-0.45828 3.0985447,3.0985447 0 0 0 0.1718549,-0.420472 3.0710479,3.0710479 0 0 1 0.5843069,0.219975 2.4707014,2.4707014 0 0 1 -1.0597723,0.658777 z"
         id="path4-3"
         style="fill:#0087bd;fill-opacity:1;stroke-width:0.0572849" />
    </g>
  </g>
</svg>
